<?xml version="1.0" encoding="UTF-8" standalone="no"?>
<!-- Created with Inkscape (http://www.inkscape.org/) -->

<svg
   xmlns:dc="http://purl.org/dc/elements/1.1/"
   xmlns:cc="http://creativecommons.org/ns#"
   xmlns:rdf="http://www.w3.org/1999/02/22-rdf-syntax-ns#"
   xmlns:svg="http://www.w3.org/2000/svg"
   xmlns="http://www.w3.org/2000/svg"
   xmlns:sodipodi="http://sodipodi.sourceforge.net/DTD/sodipodi-0.dtd"
   xmlns:inkscape="http://www.inkscape.org/namespaces/inkscape"
   width="16"
   height="16"
   viewBox="0 0 4.2333332 4.2333335"
   version="1.1"
   id="svg8"
   inkscape:export-filename="C:\Users\Kotaro\Documents\Visual Studio 2017\Projects\ContentUpdateNotifier\ContentUpdateNotifier\_Images\16x16.png"
   inkscape:export-xdpi="96"
   inkscape:export-ydpi="96"
   inkscape:version="0.92.2 (5c3e80d, 2017-08-06)"
   sodipodi:docname="ContentUpdateNotifier.svg">
  <defs
     id="defs2" />
  <sodipodi:namedview
     id="base"
     pagecolor="#ffffff"
     bordercolor="#666666"
     borderopacity="1.0"
     inkscape:pageopacity="0.0"
     inkscape:pageshadow="2"
     inkscape:zoom="22.801096"
     inkscape:cx="5.6452251"
     inkscape:cy="-2.4549517"
     inkscape:document-units="px"
     inkscape:current-layer="layer1"
     showgrid="true"
     units="px"
     inkscape:window-width="1920"
     inkscape:window-height="1001"
     inkscape:window-x="-9"
     inkscape:window-y="-9"
     inkscape:window-maximized="1">
    <inkscape:grid
       type="xygrid"
       id="grid4521" />
  </sodipodi:namedview>
  <metadata
     id="metadata5">
    <rdf:RDF>
      <cc:Work
         rdf:about="">
        <dc:format>image/svg+xml</dc:format>
        <dc:type
           rdf:resource="http://purl.org/dc/dcmitype/StillImage" />
        <dc:title />
      </cc:Work>
    </rdf:RDF>
  </metadata>
  <g
     inkscape:label="レイヤー 1"
     inkscape:groupmode="layer"
     id="layer1"
     transform="translate(0,-292.76665)">
    <path
       style="fill:#ffffff;fill-opacity:1;stroke:#000000;stroke-width:0.21166667;stroke-linejoin:round;stroke-miterlimit:4;stroke-dasharray:none;stroke-opacity:1"
       d="m 3.9513585,296.12479 -2.5556813,0.68478 -0.82175042,-3.06681 1.53340722,-0.41088 1.2961875,0.74836 z"
       id="path4536"
       inkscape:connector-curvature="0"
       sodipodi:nodetypes="cccccc" />
    <path
       style="fill:#ffffff;fill-opacity:1;stroke:#000000;stroke-width:0.13229167;stroke-linejoin:round;stroke-miterlimit:4;stroke-dasharray:none;stroke-opacity:1"
       inkscape:transform-center-y="0.26473949"
       d="M 3.4035215,294.08024 2.38125,294.35415 2.107334,293.33188 Z"
       id="path4539"
       inkscape:connector-curvature="0"
       sodipodi:nodetypes="cccc"
       inkscape:transform-center-x="-0.034239575" />
    <g
       aria-label="*"
       style="font-style:normal;font-weight:normal;font-size:10.58333302px;line-height:125%;font-family:sans-serif;letter-spacing:0px;word-spacing:0px;fill:#000000;fill-opacity:1;stroke:none;stroke-width:0.26458332px;stroke-linecap:butt;stroke-linejoin:miter;stroke-opacity:1"
       id="text4549-9-7-5"
       transform="matrix(0.8,0,0,0.8,0.31702445,58.281768)">
      <path
         sodipodi:type="inkscape:offset"
         inkscape:radius="0.21333772"
         inkscape:original="M 0.87304688 293.17578 L 0.92382812 293.88281 L 0.33789062 293.49219 L 0.1953125 293.73438 L 0.83007812 294.05273 L 0.1953125 294.36523 L 0.32617188 294.60742 L 0.91796875 294.22266 L 0.87304688 294.92969 L 1.1679688 294.92969 L 1.1210938 294.22266 L 1.703125 294.60742 L 1.84375 294.36133 L 1.2109375 294.05664 L 1.8476562 293.74219 L 1.703125 293.48828 L 1.1171875 293.88281 L 1.1679688 293.17578 L 0.87304688 293.17578 z "
         style="font-style:normal;font-variant:normal;font-weight:normal;font-stretch:normal;font-size:4.23333359px;font-family:Consolas;-inkscape-font-specification:Consolas;fill:#000000;fill-opacity:1;stroke-width:0.26458332px"
         id="path4809"
         d="m 0.8515625,292.96289 a 0.21335905,0.21335905 0 0 0 -0.19140625,0.22852 l 0.0195313,0.27148 -0.22265625,-0.14844 a 0.21335905,0.21335905 0 0 0 -0.30273437,0.0703 l -0.14257813,0.24218 a 0.21335905,0.21335905 0 0 0 0.08789062,0.29883 l 0.25000001,0.125 -0.24804688,0.12305 a 0.21335905,0.21335905 0 0 0 -0.09375,0.29297 l 0.13085938,0.24218 a 0.21335905,0.21335905 0 0 0 0.3046875,0.0781 l 0.234375,-0.15234 -0.0175781,0.28125 a 0.21335905,0.21335905 0 0 0 0.21289063,0.22656 H 1.1679688 a 0.21335905,0.21335905 0 0 0 0.2128906,-0.22656 l -0.017578,-0.2793 0.2226563,0.14844 a 0.21335905,0.21335905 0 0 0 0.3027344,-0.0723 l 0.140625,-0.24609 a 0.21335905,0.21335905 0 0 0 -0.09375,-0.29688 l -0.2402344,-0.11523 0.2460937,-0.1211 a 0.21335905,0.21335905 0 0 0 0.091797,-0.29687 l -0.1445312,-0.25391 a 0.21335905,0.21335905 0 0 0 -0.3046875,-0.0723 l -0.2226563,0.15039 0.019531,-0.26953 A 0.21335905,0.21335905 0 0 0 1.1679688,292.96289 H 0.87304688 a 0.21335905,0.21335905 0 0 0 -0.0214844,0 z"
         transform="translate(-0.28718371,0.24615746)" />
    </g>
    <text
       xml:space="preserve"
       style="font-style:normal;font-weight:normal;font-size:8.46666622px;line-height:125%;font-family:sans-serif;letter-spacing:0px;word-spacing:0px;fill:#ffffff;fill-opacity:1;stroke:none;stroke-width:0.21166666px;stroke-linecap:butt;stroke-linejoin:miter;stroke-opacity:1"
       x="-0.027364494"
       y="295.35635"
       id="text4549-9-7"><tspan
         sodipodi:role="line"
         id="tspan4547-2-3"
         x="-0.027364494"
         y="295.35635"
         style="font-style:normal;font-variant:normal;font-weight:normal;font-stretch:normal;font-size:3.38666677px;font-family:Consolas;-inkscape-font-specification:Consolas;fill:#ffffff;fill-opacity:1;stroke-width:0.21166666px">*</tspan></text>
  </g>
</svg>
